HIERARCHY
ROOT Hips
{
  OFFSET 2.26061 22.2878 23.7974
  CHANNELS 6 Xposition Yposition Zposition Zrotation Xrotation Yrotation
  JOINT LeftUpLeg
  {
    OFFSET 8.64259 1.95398 -2.38835
    CHANNELS 3 Zrotation Xrotation Yrotation
    JOINT LeftLeg
    {
      OFFSET 43.7702 0 0
      CHANNELS 3 Zrotation Xrotation Yrotation
      JOINT LeftFoot
      {
        OFFSET 40.6238 0 0
        CHANNELS 3 Zrotation Xrotation Yrotation
        JOINT LeftToeBase
        {
          OFFSET 12.7242 0 0
          CHANNELS 3 Zrotation Xrotation Yrotation
          End Site
          {
            OFFSET 0 0 0
          }
        }
      }
    }
  }
  JOINT RightUpLeg
  {
    OFFSET -8.2249 1.95398 -2.59336
    CHANNELS 3 Zrotation Xrotation Yrotation
    JOINT RightLeg
    {
      OFFSET 43.5653 0 0
      CHANNELS 3 Zrotation Xrotation Yrotation
      JOINT RightFoot
      {
        OFFSET 40.6238 0 0
        CHANNELS 3 Zrotation Xrotation Yrotation
        JOINT RightToeBase
        {
          OFFSET 12.7242 0 0
          CHANNELS 3 Zrotation Xrotation Yrotation
          End Site
          {
            OFFSET 0 0 0
          }
        }
      }
    }
  }
  JOINT Spine
  {
    OFFSET 0.165834 0.87714 6.61349
    CHANNELS 3 Zrotation Xrotation Yrotation
    JOINT Spine1
    {
      OFFSET 7.38963 1.71661e-005 0
      CHANNELS 3 Zrotation Xrotation Yrotation
      JOINT Spine2
      {
        OFFSET 11.9445 1.14441e-005 0
        CHANNELS 3 Zrotation Xrotation Yrotation
        JOINT Spine3
        {
          OFFSET 14.7254 4.19617e-005 0
          CHANNELS 3 Zrotation Xrotation Yrotation
          JOINT Spine4
          {
            OFFSET 10.9679 0 0
            CHANNELS 3 Zrotation Xrotation Yrotation
            JOINT RightShoulder
            {
              OFFSET 2.46616 -1.6653 3.69651
              CHANNELS 3 Zrotation Xrotation Yrotation
              JOINT RightArm
              {
                OFFSET 13.0012 0 0
                CHANNELS 3 Zrotation Xrotation Yrotation
                JOINT RightForeArm
                {
                  OFFSET 28.7848 1.52588e-005 0
                  CHANNELS 3 Zrotation Xrotation Yrotation
                  JOINT RightHand
                  {
                    OFFSET 26.5688 1.52588e-005 0
                    CHANNELS 3 Zrotation Xrotation Yrotation
                    End Site
                    {
                      OFFSET 0 0 0
                    }
                  }
                }
              }
            }
            JOINT LeftShoulder
            {
              OFFSET 2.38034 -1.29275 -3.7523
              CHANNELS 3 Zrotation Xrotation Yrotation
              JOINT LeftArm
              {
                OFFSET 16.3182 6.10351e-005 0
                CHANNELS 3 Zrotation Xrotation Yrotation
                JOINT LeftForeArm
                {
                  OFFSET 27.0901 0 0
                  CHANNELS 3 Zrotation Xrotation Yrotation
                  JOINT LeftHand
                  {
                    OFFSET 24.5451 1.52588e-005 0
                    CHANNELS 3 Zrotation Xrotation Yrotation
                    End Site
                    {
                      OFFSET 0 0 0
                    }
                  }
                }
              }
            }
            JOINT Neck
            {
              OFFSET 5.0226 -0.0266342 0
              CHANNELS 3 Zrotation Xrotation Yrotation
              JOINT Head
              {
                OFFSET 6.69363 2.86102e-005 0
                CHANNELS 3 Zrotation Xrotation Yrotation
                End Site
                {
                  OFFSET 0 0 0
                }
              }
            }
          }
        }
      }
    }
  }
}
MOTION
Frames:	6
Frame Time:	0.0416667
-300.795 77.4826 -305.977 68.6639 -24.7486 94.3258 12.2483 43.2767 48.498 78.8433 51.8842 161.851 82.4416 12.9447 106.212 55.4717 -23.0263 172.832 159.265 79.7051 113.131 -77.7337 16.7201 4.53251 24.5607 7.12019 11.3359 110.254 7.05692 3.13892 6.99162 5.12933 -90.4095 16.9544 13.569 -3.19455 5.35019 13.4151 -3.79875 -17.7674 13.8895 1.11234 2.24527 13.8895 1.11234 85.9092 37.5907 30.2288 56.7604 -47.7951 -78.8237 -111.414 -4.45581 179.977 37.7248 16.0973 51.2307 -146.216 -44.9754 2.04549 -51.9167 45.2707 98.1366 158.781 -4.57319 -62.8075 30.2942 3.90247 9.19673 52.8603 6.70107 75.5859 81.4576 -9.51844 24.4141 
-301.15 77.2999 -306.31 68.7226 -24.8606 94.3704 13.2265 43.5872 47.6989 79.7073 51.5657 161.047 83.3261 12.0366 106.404 57.1214 -24.9364 173.737 159.256 79.9786 113.543 -77.7322 14.2468 4.02928 25.7349 8.39491 10.7065 110.061 5.91825 1.66085 7.07568 5.05802 -90.4313 17.1105 13.7181 -3.29347 5.50766 13.5598 -3.90444 -17.6233 14.0611 1.06565 2.38938 14.0611 1.06565 82.3194 39.4303 30.8453 59.3182 -48.2525 -75.1377 -111.332 -4.80182 179.977 37.4529 16.4399 52.4183 -146.885 -44.8807 1.26636 -52.3096 45.1309 98.8215 159.739 -3.89219 -63.8221 29.3026 4.2091 10.7091 51.4341 6.06838 75.9755 82.2165 -8.57261 24.7783 
-302.178 76.7529 -307.273 68.8954 -25.1853 94.4972 16.2372 44.1988 45.2025 82.4728 50.6129 158.372 85.9181 9.59708 107.033 62.0816 -30.1791 176.63 159.38 80.637 114.54 -78.2103 10.6426 2.76809 29.9494 8.48795 10.0998 108.523 2.51256 -2.75204 7.3069 4.85301 -90.4964 17.5605 14.1236 -3.58332 5.96119 13.9521 -4.21267 -17.2069 14.5337 0.919132 2.8058 14.5337 0.919133 71.9548 44.3779 32.7888 66.8211 -48.9001 -64.4079 -111.025 -5.98819 179.977 36.983 17.4814 55.6389 -148.786 -44.6406 -0.903831 -53.4651 44.6655 100.759 162.367 -2.24028 -66.7437 26.3991 4.90361 14.9268 45.1634 4.75374 76.7746 84.5393 -5.71584 28.2059 
-303.831 75.8228 -308.822 69.1807 -25.7072 94.6956 21.6708 44.0796 40.6285 87.8574 48.8876 152.755 90.2102 6.34728 108.248 70.3925 -37.4053 -178.017 161.237 80.9283 114.345 -79.2547 4.26939 1.07186 41.1722 7.46909 7.20178 102.088 -2.99339 -10.7827 7.64275 4.52669 -90.6102 18.2789 14.6966 -4.06274 6.68452 14.5034 -4.71799 -16.5377 15.2224 0.646344 3.47498 15.2224 0.646331 55.4721 51.2701 36.3303 78.2235 -48.0349 -47.9922 -110.355 -8.37385 179.977 37.064 19.4063 60.2491 -151.757 -44.3504 -4.16948 -55.263 43.7354 103.66 166.099 -0.429735 -71.3393 21.7903 5.48031 21.2311 34.0047 2.92788 77.0769 87.4666 -0.539926 35.1619 
-306.082 74.4905 -310.933 69.581 -26.4133 94.9557 30.187 40.9175 33.634 97.2459 45.6443 141.839 96.3661 3.44929 110.055 80.1196 -43.8575 -171.272 170.831 77.8861 106.509 -77.9756 -3.58406 -0.579751 66.5999 -0.185951 0.100994 82.8171 -7.48177 -23.7789 8.0333 4.09133 -90.7862 19.2414 15.3276 -4.74309 7.65177 15.1041 -5.42661 -15.6318 16.0267 0.201777 4.3809 16.0267 0.201773 33.7989 58.9198 41.8242 90.3691 -44.1741 -29.4752 -109.256 -12.2871 179.977 38.1916 22.5617 65.7302 -155.663 -44.1003 -8.24927 -57.3752 42.1491 107.038 170.255 0.774432 -77.195 16.0334 5.44074 28.8328 20.2333 0.668521 76.0264 89.4549 7.13526 43.8091 
-308.924 72.565 -313.535 70.1006 -27.2913 95.2682 42.4734 29.6301 24.884 114.206 38.7365 120.511 105.147 2.61274 109.747 77.673 -43.3315 -174.235 -177.888 69.7049 95.7495 -66.3317 -11.2012 -1.786 99.1024 -14.0588 -3.80426 52.2424 -4.00183 -35.4377 8.49378 3.54437 -91.0222 20.4395 16.0433 -5.63072 8.85496 15.7801 -6.3461 -14.5004 16.9728 -0.411647 5.5123 16.9728 -0.411666 4.85249 66.9378 51.6845 100.346 -36.6778 -11.4891 -107.171 -17.5688 179.976 39.7672 26.9846 71.9692 -160.518 -43.6583 -13.2286 -59.5777 39.7827 110.828 174.214 0.868483 -83.7053 9.93985 4.56174 36.9125 4.82351 -1.73489 73.2336 89.1085 16.9603 54.0463 
